# xmcd
#
# Track frame offsets: 
#        150
#        25081
#        41737
#        58364
#        83554
#        106390
#        135407
#
# Disc length: 2160 seconds
#
# Revision: 0
# Processed by: cddbd v1.5.2PL0 Copyright (c) Steve Scherf et al.
# Submitted via: ExactAudioCopyFreeDBPlugin 1.0
#
DISCID=55086e07
DTITLE=Ласковый Май - Первый альбом
DYEAR=1988
DGENRE=Pop
TTITLE0=Белые розы
TTITLE1=Я откровенен лишь с луной
TTITLE2=Лето
TTITLE3=Пусть будет ночь
TTITLE4=Ну что же ты
TTITLE5=Седая ночь 
TTITLE6=Старый лес
EXTD=
EXTT0=
EXTT1=
EXTT2=
EXTT3=
EXTT4=
EXTT5=
EXTT6=
PLAYORDER=
